<svg version="1" xmlns="http://www.w3.org/2000/svg" width="933.333" height="933.333" viewBox="0 0 700.000000 700.000000"><path d="M218.9 131.8c0 .4 0 98.8-.1 218.7v218l136.6.2 136.6.2.1-2.2c0-1.2 0-99.6.1-218.7V131.5l-136.6-.2c-75.1-.1-136.6.2-136.7.5zM481 145.9c.1 5.3.1 403.9 0 408.2v3.7H355.5c-115.6 0-125.5-.2-125.6-1.7-.4-9.8 0-412.1.4-412.8.5-.7 40.2-1.1 125.7-1.1h125v3.7zM33 350v164h164V186H33v164zm153 0v153h-71c-56.1 0-71-.3-71.1-1.3-.1-1.6-.1-300.7 0-303 .1-1.6 4.2-1.7 71.1-1.7h71v153zM514 350v164h164v-38.8c.1-48.3.1-131 0-220.5V186H514v164zm153 0v153H525V197h142v153z"/></svg>